<svg width="31" height="31" viewBox="0 0 31 31" fill="none" xmlns="http://www.w3.org/2000/svg">
<path d="M12.0556 0H1.72222C1.26546 0 0.827406 0.181448 0.504427 0.504427C0.181448 0.827406 0 1.26546 0 1.72222V12.0556C0 12.5123 0.181448 12.9504 0.504427 13.2734C0.827406 13.5963 1.26546 13.7778 1.72222 13.7778H12.0556C12.5123 13.7778 12.9504 13.5963 13.2734 13.2734C13.5963 12.9504 13.7778 12.5123 13.7778 12.0556V1.72222C13.7778 1.26546 13.5963 0.827406 13.2734 0.504427C12.9504 0.181448 12.5123 0 12.0556 0ZM29.2778 17.2222H18.9444C18.4877 17.2222 18.0496 17.4037 17.7266 17.7266C17.4037 18.0496 17.2222 18.4877 17.2222 18.9444V29.2778C17.2222 29.7345 17.4037 30.1726 17.7266 30.4956C18.0496 30.8186 18.4877 31 18.9444 31H29.2778C29.7345 31 30.1726 30.8186 30.4956 30.4956C30.8186 30.1726 31 29.7345 31 29.2778V18.9444C31 18.4877 30.8186 18.0496 30.4956 17.7266C30.1726 17.4037 29.7345 17.2222 29.2778 17.2222ZM24.1111 0C20.3119 0 17.2222 3.08967 17.2222 6.88889C17.2222 10.6881 20.3119 13.7778 24.1111 13.7778C27.9103 13.7778 31 10.6881 31 6.88889C31 3.08967 27.9103 0 24.1111 0ZM6.88889 17.2222C3.08967 17.2222 0 20.3119 0 24.1111C0 27.9103 3.08967 31 6.88889 31C10.6881 31 13.7778 27.9103 13.7778 24.1111C13.7778 20.3119 10.6881 17.2222 6.88889 17.2222Z" fill="#666666"/>
</svg>
