<svg width="28" height="28" viewBox="0 0 28 28" fill="none" xmlns="http://www.w3.org/2000/svg">
<path d="M11.6667 3.5H4.66667C4.35725 3.5 4.0605 3.62292 3.84171 3.84171C3.62292 4.0605 3.5 4.35725 3.5 4.66667V11.6667C3.5 11.9761 3.62292 12.2728 3.84171 12.4916C4.0605 12.7104 4.35725 12.8333 4.66667 12.8333H11.6667C11.9761 12.8333 12.2728 12.7104 12.4916 12.4916C12.7104 12.2728 12.8333 11.9761 12.8333 11.6667V4.66667C12.8333 4.35725 12.7104 4.0605 12.4916 3.84171C12.2728 3.62292 11.9761 3.5 11.6667 3.5ZM10.5 10.5H5.83333V5.83333H10.5V10.5ZM23.3333 3.5H16.3333C16.0239 3.5 15.7272 3.62292 15.5084 3.84171C15.2896 4.0605 15.1667 4.35725 15.1667 4.66667V11.6667C15.1667 11.9761 15.2896 12.2728 15.5084 12.4916C15.7272 12.7104 16.0239 12.8333 16.3333 12.8333H23.3333C23.6428 12.8333 23.9395 12.7104 24.1583 12.4916C24.3771 12.2728 24.5 11.9761 24.5 11.6667V4.66667C24.5 4.35725 24.3771 4.0605 24.1583 3.84171C23.9395 3.62292 23.6428 3.5 23.3333 3.5ZM22.1667 10.5H17.5V5.83333H22.1667V10.5ZM11.6667 15.1667H4.66667C4.35725 15.1667 4.0605 15.2896 3.84171 15.5084C3.62292 15.7272 3.5 16.0239 3.5 16.3333V23.3333C3.5 23.6428 3.62292 23.9395 3.84171 24.1583C4.0605 24.3771 4.35725 24.5 4.66667 24.5H11.6667C11.9761 24.5 12.2728 24.3771 12.4916 24.1583C12.7104 23.9395 12.8333 23.6428 12.8333 23.3333V16.3333C12.8333 16.0239 12.7104 15.7272 12.4916 15.5084C12.2728 15.2896 11.9761 15.1667 11.6667 15.1667ZM10.5 22.1667H5.83333V17.5H10.5V22.1667ZM19.8333 15.1667C17.2597 15.1667 15.1667 17.2597 15.1667 19.8333C15.1667 22.407 17.2597 24.5 19.8333 24.5C22.407 24.5 24.5 22.407 24.5 19.8333C24.5 17.2597 22.407 15.1667 19.8333 15.1667ZM19.8333 22.1667C18.5465 22.1667 17.5 21.1202 17.5 19.8333C17.5 18.5465 18.5465 17.5 19.8333 17.5C21.1202 17.5 22.1667 18.5465 22.1667 19.8333C22.1667 21.1202 21.1202 22.1667 19.8333 22.1667Z" fill="white"/>
</svg>
