<svg width="17" height="19" viewBox="0 0 17 19" fill="none" xmlns="http://www.w3.org/2000/svg">
<path d="M1.7 5.1V17H13.6V18.7H1.7C0.764999 18.7 0 17.935 0 17V5.1H1.7ZM15.3 1.7C16.235 1.7 17 2.465 17 3.4V13.6C17 14.535 16.235 15.3 15.3 15.3H5.09999C4.16499 15.3 3.39999 14.535 3.39999 13.6V3.4C3.39999 2.465 4.16499 1.7 5.09999 1.7H7.80299C8.15999 0.713999 9.09499 0 10.2 0C11.305 0 12.24 0.713999 12.597 1.7H15.3ZM10.2 1.7C9.73248 1.7 9.34999 2.0825 9.34999 2.55C9.34999 3.0175 9.73248 3.4 10.2 3.4C10.6675 3.4 11.05 3.0175 11.05 2.55C11.05 2.0825 10.6675 1.7 10.2 1.7ZM6.79999 5.1V3.4H5.09999V13.6H15.3V3.4H13.6V5.1H6.79999Z" fill="white"/>
</svg>
