<svg width="13" height="13" viewBox="0 0 13 13" fill="none" xmlns="http://www.w3.org/2000/svg">
<path d="M1.30005 2.59999C1.30005 2.25521 1.43701 1.92455 1.68081 1.68075C1.92461 1.43695 2.25527 1.29999 2.60005 1.29999H9.10005C9.44483 1.29999 9.77549 1.43695 10.0193 1.68075C10.2631 1.92455 10.4 2.25521 10.4 2.59999V9.09999C10.4 9.44477 10.2631 9.77543 10.0193 10.0192C9.77549 10.263 9.44483 10.4 9.10005 10.4H2.60005C2.25527 10.4 1.92461 10.263 1.68081 10.0192C1.43701 9.77543 1.30005 9.44477 1.30005 9.09999V2.59999ZM8.01455 4.30559C7.98242 4.27744 7.94506 4.25589 7.9046 4.24219C7.86415 4.22849 7.82139 4.2229 7.77876 4.22573C7.73614 4.22857 7.6945 4.23978 7.65622 4.25873C7.61793 4.27767 7.58376 4.30398 7.55565 4.33614L5.50945 6.67419L4.45515 5.61989C4.42493 5.58967 4.38906 5.5657 4.34958 5.54935C4.3101 5.53299 4.26778 5.52458 4.22505 5.52458C4.18231 5.52458 4.14 5.53299 4.10052 5.54935C4.06104 5.5657 4.02517 5.58967 3.99495 5.61989C3.96473 5.6501 3.94076 5.68598 3.92441 5.72546C3.90805 5.76494 3.89964 5.80725 3.89964 5.84999C3.89964 5.89272 3.90805 5.93504 3.92441 5.97452C3.94076 6.014 3.96473 6.04987 3.99495 6.08009L5.29495 7.38009C5.32645 7.41154 5.36407 7.43619 5.40549 7.45251C5.44691 7.46882 5.49124 7.47645 5.53572 7.47493C5.58021 7.47341 5.62392 7.46276 5.66412 7.44365C5.70432 7.42454 5.74018 7.39737 5.76945 7.36384L8.04445 4.76384C8.1011 4.69899 8.1297 4.61431 8.12398 4.52839C8.11825 4.44247 8.07931 4.36234 8.01455 4.30559ZM2.7736 11.05C2.88775 11.2477 3.05196 11.4119 3.2497 11.526C3.44744 11.6401 3.67175 11.7001 3.90005 11.7H9.10005C9.78961 11.7 10.4509 11.4261 10.9385 10.9385C11.4261 10.4509 11.7 9.78955 11.7 9.09999V3.89999C11.7 3.6718 11.64 3.44762 11.5259 3.25001C11.4118 3.05239 11.2477 2.88828 11.05 2.77419V9.09999C11.05 9.61716 10.8446 10.1131 10.4789 10.4788C10.1132 10.8445 9.61722 11.05 9.10005 11.05H2.7736Z" fill="#7FF284"/>
</svg>
